<?xml version="1.0" encoding="utf-8"?>
<!-- Generator: Adobe Illustrator 27.8.1, SVG Export Plug-In . SVG Version: 6.00 Build 0)  -->
<svg version="1.1" id="Layer_1" xmlns="http://www.w3.org/2000/svg" xmlns:xlink="http://www.w3.org/1999/xlink" x="0px" y="0px"
	 viewBox="0 0 327.9 129.3" style="enable-background:new 0 0 327.9 129.3;" xml:space="preserve">
<style type="text/css">
	.st0{fill:url(#SVGID_1_);}
	.st1{fill:url(#SVGID_00000150067426444436942020000017023617196148938163_);}
	.st2{fill:url(#SVGID_00000183246815789297629280000011588869425356489123_);}
	.st3{fill:url(#SVGID_00000105385539462713671690000007521992608752390555_);}
	.st4{fill:url(#SVGID_00000075851430493061361840000017268128852741079481_);}
	.st5{fill:url(#SVGID_00000088815248141375469210000009849658362787929511_);}
	.st6{fill:url(#SVGID_00000068674939074865740320000005047040980530713768_);}
	.st7{fill:url(#SVGID_00000078741310309432925450000016223937198096810630_);}
	.st8{fill:url(#SVGID_00000136382103973092552100000007582782930743639702_);}
	.st9{fill:url(#SVGID_00000181054281701852728620000001292984893086547851_);}
	.st10{fill:url(#SVGID_00000101097641019162629510000004295426810714396071_);}
	.st11{fill:url(#SVGID_00000030462986057020600200000008605651587910667137_);}
	.st12{fill:url(#SVGID_00000101795769046203479030000014054599210032474804_);}
	.st13{fill:url(#SVGID_00000108301301629703993460000012146388596493713326_);}
	.st14{fill:url(#SVGID_00000072278189545364571170000007336398992343315369_);}
	.st15{fill:url(#SVGID_00000163058123386792415430000001898081856467526024_);}
	.st16{fill:url(#SVGID_00000053533738317540407600000009943786899302538902_);}
	.st17{fill:url(#SVGID_00000060727440566021440680000012513194222501176989_);}
	.st18{fill:url(#SVGID_00000036944521182270091690000006849130656714168968_);}
	.st19{fill:url(#SVGID_00000096046676925481438570000011047807095168249486_);}
	.st20{fill:url(#SVGID_00000093871113950242868690000016768790188173482429_);}
	.st21{fill:url(#SVGID_00000183241743952149173430000013950042014003754410_);}
	.st22{fill:url(#SVGID_00000139293444863522172940000004963417155870152100_);}
</style>
<g>
	<g>
		<linearGradient id="SVGID_1_" gradientUnits="userSpaceOnUse" x1="324.0554" y1="124.1515" x2="3.5177" y2="124.1515">
			<stop  offset="0" style="stop-color:#764F30"/>
			<stop  offset="0.4" style="stop-color:#E7D8B9"/>
			<stop  offset="0.6" style="stop-color:#E3D3B1"/>
			<stop  offset="0.6582" style="stop-color:#C4AE8D"/>
			<stop  offset="0.7231" style="stop-color:#A88C6B"/>
			<stop  offset="0.7895" style="stop-color:#927151"/>
			<stop  offset="0.857" style="stop-color:#825E3F"/>
			<stop  offset="0.9262" style="stop-color:#795334"/>
			<stop  offset="1" style="stop-color:#764F30"/>
		</linearGradient>
		<path class="st0" d="M3.5,123.8c1.4,0,2.7,0,4.1,0c16-0.2,32.1-0.5,48.1-0.7c5.5-0.1,11-0.1,16.5-0.2c7.1-0.1,14.2-0.2,21.3-0.2
			c12.5-0.1,25.1-0.1,37.6-0.2c7.6,0,15.1,0,22.7,0c21.2,0,42.3,0,63.5,0.1c10.6,0,21.2,0.1,31.9,0.2c7.1,0.1,14.2,0.1,21.3,0.2
			c10,0.1,20,0.3,30.1,0.4c7.6,0.1,15.2,0.3,22.8,0.4c0.3,0,0.5,0.1,0.7,0.1c0,0.1,0,0.2,0,0.3c-0.8,0-1.7,0.1-2.5,0.1
			c-8.4,0.1-16.8,0.3-25.2,0.4c-9.5,0.1-19.1,0.3-28.6,0.4c-6,0.1-11.9,0.2-17.9,0.2c-13.8,0.1-27.6,0.2-41.5,0.2
			c-16.3,0.1-32.7,0.1-49,0.2c-12.7,0-25.3,0-38,0c-12.2,0-24.4-0.1-36.6-0.2c-7.6-0.1-15.1-0.1-22.7-0.2
			c-9.7-0.1-19.5-0.3-29.2-0.4c-3.4-0.1-6.7-0.1-10.1-0.2c-6.2-0.1-12.4-0.3-18.7-0.4c-0.2,0-0.5-0.1-0.7-0.1
			C3.5,124.1,3.5,123.9,3.5,123.8z"/>
		
			<linearGradient id="SVGID_00000133496703035780408110000004795164763139442307_" gradientUnits="userSpaceOnUse" x1="291.0563" y1="93.1851" x2="248.2363" y2="93.1851">
			<stop  offset="0" style="stop-color:#764F30"/>
			<stop  offset="0.4" style="stop-color:#E7D8B9"/>
			<stop  offset="0.6" style="stop-color:#E3D3B1"/>
			<stop  offset="0.6582" style="stop-color:#C4AE8D"/>
			<stop  offset="0.7231" style="stop-color:#A88C6B"/>
			<stop  offset="0.7895" style="stop-color:#927151"/>
			<stop  offset="0.857" style="stop-color:#825E3F"/>
			<stop  offset="0.9262" style="stop-color:#795334"/>
			<stop  offset="1" style="stop-color:#764F30"/>
		</linearGradient>
		<path style="fill:url(#SVGID_00000133496703035780408110000004795164763139442307_);" d="M291,79.1c0,0.5,0,0.9,0,1.3
			c0,8.6,0,17.3,0,25.9c0,0.7-0.1,1-0.9,1c-1.1,0-2.2,0-3.3,0c-0.8,0-1.1-0.2-1-1.1c0-5.6,0-11.2,0-16.8c0-0.2,0-0.5-0.1-1
			c-0.4,0.5-0.7,0.8-0.9,1.1c-4.2,5.7-8.4,11.4-12.6,17.2c-0.2,0.3-0.6,0.3-0.9,0.5c-0.1,0-0.1,0-0.2,0c-1.3,0-2.8,0.3-3.8-0.2
			c-1-0.5-1.6-1.9-2.4-3c-2.5-3.4-5-6.8-7.5-10.3c-1.2-1.7-2.5-3.4-3.9-5.4c-0.1,0.6-0.1,0.9-0.1,1.2c0,5.5,0,11.1,0,16.6
			c0,1-0.3,1.3-1.3,1.2c-1-0.1-2.1-0.1-3.1,0c-0.6,0-0.8-0.2-0.8-0.9c0-8.8,0-17.6,0-26.4c0-0.3,0.1-0.5,0.1-0.9c1.6,0,3.2,0,4.7,0
			c0.2,0,0.5,0.2,0.7,0.4c3.4,4.7,6.8,9.3,10.2,14c2,2.7,3.9,5.4,6,8.2c1.2-1.7,2.4-3.3,3.6-4.9c3.7-5.1,7.5-10.2,11-15.4
			c1.4-2.1,2.9-2.7,5.1-2.4C290,79.2,290.4,79.1,291,79.1z"/>
		
			<linearGradient id="SVGID_00000146476450019074427570000006757765341258109615_" gradientUnits="userSpaceOnUse" x1="243.6305" y1="93.1851" x2="207.4293" y2="93.1851">
			<stop  offset="0" style="stop-color:#764F30"/>
			<stop  offset="0.4" style="stop-color:#E7D8B9"/>
			<stop  offset="0.6" style="stop-color:#E3D3B1"/>
			<stop  offset="0.6582" style="stop-color:#C4AE8D"/>
			<stop  offset="0.7231" style="stop-color:#A88C6B"/>
			<stop  offset="0.7895" style="stop-color:#927151"/>
			<stop  offset="0.857" style="stop-color:#825E3F"/>
			<stop  offset="0.9262" style="stop-color:#795334"/>
			<stop  offset="1" style="stop-color:#764F30"/>
		</linearGradient>
		<path style="fill:url(#SVGID_00000146476450019074427570000006757765341258109615_);" d="M225.6,79.1c3.2,0,6.5-0.1,9.7,0.1
			c1.7,0.1,3.5,0.5,5.1,1.2c2.2,0.9,3.1,2.8,3.2,5.1c0.1,5.2,0,10.4,0,15.6c0,2.8-1.8,5.2-4.7,5.7c-1.9,0.4-3.9,0.5-5.9,0.5
			c-5.6,0.1-11.2,0.1-16.8,0.1c-1.8,0-3.5-0.2-5.2-0.9c-2.4-1.1-3.6-2.9-3.6-5.5c0-5.1,0-10.2,0-15.2c0-2.8,1.8-5.2,4.5-5.9
			c1.4-0.3,2.9-0.6,4.4-0.6C219.5,79,222.5,79.1,225.6,79.1C225.6,79.1,225.6,79.1,225.6,79.1z M225.5,102.9
			C225.5,102.9,225.5,102.9,225.5,102.9c3.1,0,6.3,0,9.4,0c2.3,0,3.2-0.9,3.2-3.2c0-4.3,0-8.6,0-12.9c0-2.5-0.8-3.2-3.3-3.2
			c-3.9,0-7.7,0-11.6,0c-2.7,0-5.4,0-8,0.2c-1.4,0.1-2.2,0.9-2.2,2.3c0,4.8,0,9.5,0,14.3c0,1.5,0.9,2.3,2.4,2.5
			c0.5,0.1,1,0.1,1.6,0.1C219.8,102.9,222.6,102.9,225.5,102.9z"/>
		
			<linearGradient id="SVGID_00000083071846706241555330000006517848176999854480_" gradientUnits="userSpaceOnUse" x1="105.9765" y1="93.1915" x2="71.8569" y2="93.1915">
			<stop  offset="0" style="stop-color:#764F30"/>
			<stop  offset="0.4" style="stop-color:#E7D8B9"/>
			<stop  offset="0.6" style="stop-color:#E3D3B1"/>
			<stop  offset="0.6582" style="stop-color:#C4AE8D"/>
			<stop  offset="0.7231" style="stop-color:#A88C6B"/>
			<stop  offset="0.7895" style="stop-color:#927151"/>
			<stop  offset="0.857" style="stop-color:#825E3F"/>
			<stop  offset="0.9262" style="stop-color:#795334"/>
			<stop  offset="1" style="stop-color:#764F30"/>
		</linearGradient>
		<path style="fill:url(#SVGID_00000083071846706241555330000006517848176999854480_);" d="M104.4,83.5c-0.5,0-0.9,0-1.3,0
			c-7.5,0-15,0-22.6,0.1c-2.9,0-4.4,2.7-2.9,5.3c0.3,0.6,1.3,1,2,1.1c2.1,0.2,4.2,0.2,6.4,0.2c4.2,0,8.4,0,12.5,0.1
			c1.4,0,2.8,0.5,4.1,1c1.9,0.7,2.9,2.3,3.1,4.3c0.2,2.1,0.2,4.3,0,6.4c-0.3,2.7-2.3,4.6-5.2,5.1c-1.3,0.2-2.7,0.3-4,0.3
			c-7.4,0-14.8,0-22.2,0.1c-1.7,0-1.7,0-1.7-1.7c0-0.2,0-0.4,0-0.6c0-2.1,0-2.1,2.1-2.1c7.2,0,14.5,0,21.7,0c0.4,0,0.8,0,1.1,0
			c2.1-0.2,2.8-1.1,2.8-3.2c0-0.9,0-1.7,0-2.6c0-1.5-0.8-2.4-2.3-2.5c-2.9-0.1-5.8-0.1-8.8-0.1c-3.6,0-7.2,0.1-10.8-0.1
			c-3.1-0.1-6.1-1.9-6.5-5.1c-0.2-1.9-0.2-4,0.3-5.9c0.8-2.7,3.2-3.8,5.8-4c2.2-0.2,4.5-0.3,6.8-0.3c6.2,0,12.3,0,18.5,0
			c0.9,0,1.2,0.2,1.1,1.1C104.4,81.3,104.4,82.3,104.4,83.5z"/>
		
			<linearGradient id="SVGID_00000022540117792015862290000005097901349703746180_" gradientUnits="userSpaceOnUse" x1="324.8119" y1="93.2388" x2="295.801" y2="93.2388">
			<stop  offset="0" style="stop-color:#764F30"/>
			<stop  offset="0.4" style="stop-color:#E7D8B9"/>
			<stop  offset="0.6" style="stop-color:#E3D3B1"/>
			<stop  offset="0.6582" style="stop-color:#C4AE8D"/>
			<stop  offset="0.7231" style="stop-color:#A88C6B"/>
			<stop  offset="0.7895" style="stop-color:#927151"/>
			<stop  offset="0.857" style="stop-color:#825E3F"/>
			<stop  offset="0.9262" style="stop-color:#795334"/>
			<stop  offset="1" style="stop-color:#764F30"/>
		</linearGradient>
		<path style="fill:url(#SVGID_00000022540117792015862290000005097901349703746180_);" d="M324.7,102.9c0,1.5,0,2.8,0,4.3
			c-0.5,0-0.9,0.1-1.3,0.1c-8.8,0-17.5,0-26.3,0c-1,0-1.3-0.3-1.3-1.3c0-8.6,0-17.2,0-25.8c0-0.3,0-0.7,0-1.1c9.7,0,19.2,0,29,0
			c0,1.3,0,2.6,0,3.9c0,0.2-0.6,0.5-0.9,0.5c-3.8,0-7.5,0-11.3,0c-3.4,0-6.8,0.1-10.2,0c-0.7,0-0.9,0.2-0.9,0.9c0,1.6,0,3.1,0,4.7
			c0,0.8,0.2,1,1,1c6.5,0,13.1,0,19.6,0c1.5,0,1.5,0,1.6,1.5c0,0.6,0,1.2,0,1.8c0.1,1-0.4,1.2-1.3,1.2c-3.6-0.1-7.2-0.1-10.9-0.1
			c-3,0-6,0.1-9,0c-0.8,0-1.1,0.2-1.1,1c0,2.1,0,4.1,0,6.2c0,0.9,0.3,1.1,1.1,1.1c6.8,0,13.6,0,20.5,0
			C323.6,102.9,324.1,102.9,324.7,102.9z"/>
		
			<linearGradient id="SVGID_00000029730309201944076730000014966765648989740173_" gradientUnits="userSpaceOnUse" x1="34.9069" y1="93.1985" x2="3.0471" y2="93.1985">
			<stop  offset="0" style="stop-color:#764F30"/>
			<stop  offset="0.4" style="stop-color:#E7D8B9"/>
			<stop  offset="0.6" style="stop-color:#E3D3B1"/>
			<stop  offset="0.6582" style="stop-color:#C4AE8D"/>
			<stop  offset="0.7231" style="stop-color:#A88C6B"/>
			<stop  offset="0.7895" style="stop-color:#927151"/>
			<stop  offset="0.857" style="stop-color:#825E3F"/>
			<stop  offset="0.9262" style="stop-color:#795334"/>
			<stop  offset="1" style="stop-color:#764F30"/>
		</linearGradient>
		<path style="fill:url(#SVGID_00000029730309201944076730000014966765648989740173_);" d="M3.1,79.1c5.6,0,11.1,0,16.6,0
			c2.2,0,4.3-0.2,6.5,0c1.9,0.2,3.8,0.5,5.5,1.2c2.1,0.9,3.1,2.8,3.1,5.1c0,1.6,0,3.2,0,4.8c0,3.3-1.6,5.5-4.9,6.2
			c-2,0.4-4.2,0.5-6.3,0.5C19,97.1,14.3,97,9.6,97c-0.9,0-1,0.6-1,1.2c0,2.6,0,5.3,0,7.9c0,0.9-0.3,1.2-1.1,1.1
			c-1.2-0.1-2.4,0-3.7,0c-0.6,0-0.9-0.2-0.9-0.8c0-8.8,0-17.7,0-26.5C3.1,79.7,3.1,79.5,3.1,79.1z M8.8,83.5
			c-0.1,0.4-0.2,0.6-0.2,0.9c0,2.4,0,4.8,0,7.2c0,0.8,0.4,0.9,1.1,0.9c3.8,0,7.6,0.1,11.4,0.1c1.9,0,3.8,0,5.6-0.1
			c1.9-0.1,2.7-0.9,2.7-2.9c0-1.2,0-2.4,0-3.7c0-1.3-0.6-2.1-2-2.3c-1.2-0.2-2.4-0.2-3.5-0.2C18.9,83.5,13.9,83.5,8.8,83.5z"/>
		
			<linearGradient id="SVGID_00000133507190288027064240000011689925870514331537_" gradientUnits="userSpaceOnUse" x1="202.8383" y1="93.2018" x2="169.2394" y2="93.2018">
			<stop  offset="0" style="stop-color:#764F30"/>
			<stop  offset="0.4" style="stop-color:#E7D8B9"/>
			<stop  offset="0.6" style="stop-color:#E3D3B1"/>
			<stop  offset="0.6582" style="stop-color:#C4AE8D"/>
			<stop  offset="0.7231" style="stop-color:#A88C6B"/>
			<stop  offset="0.7895" style="stop-color:#927151"/>
			<stop  offset="0.857" style="stop-color:#825E3F"/>
			<stop  offset="0.9262" style="stop-color:#795334"/>
			<stop  offset="1" style="stop-color:#764F30"/>
		</linearGradient>
		<path style="fill:url(#SVGID_00000133507190288027064240000011689925870514331537_);" d="M174.6,107.2c-1.8,0-3.5,0-5.4,0
			c0-9.3,0-18.7,0-28.1c1.7,0,3.3,0,5,0c0.2,0,0.5,0.6,0.5,0.9c0,3,0,5.9,0,8.9c0,0.3,0,0.7,0,1.1c0.5,0,0.9,0.1,1.3,0.1
			c6.6,0,13.2,0,19.8,0c1,0,1.4-0.3,1.4-1.3c-0.1-2.9,0-5.8,0-8.7c0-0.9,0.3-1.2,1.1-1.1c1.1,0.1,2.2,0.1,3.3,0
			c0.9-0.1,1.2,0.2,1.2,1.2c-0.1,2.9,0,5.8,0,8.7c0,5.8,0,11.6,0,17.3c0,0.9-0.3,1.1-1.1,1.1c-1.2,0-2.4-0.1-3.7,0
			c-0.8,0-0.9-0.3-0.9-1c0-3.5,0-7,0-10.5c0-0.8-0.2-1.2-1.1-1.2c-6.7,0-13.4,0-20,0c-1.3,0-1.3,0-1.3,1.4c0,3.5,0,7.1,0,10.6
			C174.7,106.8,174.6,107,174.6,107.2z"/>
		
			<linearGradient id="SVGID_00000150785735000487924080000006210779251894113680_" gradientUnits="userSpaceOnUse" x1="71.7941" y1="93.1747" x2="30.6069" y2="93.1747">
			<stop  offset="0" style="stop-color:#764F30"/>
			<stop  offset="0.4" style="stop-color:#E7D8B9"/>
			<stop  offset="0.6" style="stop-color:#E3D3B1"/>
			<stop  offset="0.6582" style="stop-color:#C4AE8D"/>
			<stop  offset="0.7231" style="stop-color:#A88C6B"/>
			<stop  offset="0.7895" style="stop-color:#927151"/>
			<stop  offset="0.857" style="stop-color:#825E3F"/>
			<stop  offset="0.9262" style="stop-color:#795334"/>
			<stop  offset="1" style="stop-color:#764F30"/>
		</linearGradient>
		<path style="fill:url(#SVGID_00000150785735000487924080000006210779251894113680_);" d="M30.6,107.3c1.2-1.9,2.3-3.5,3.4-5.1
			c3.1-4.7,6.1-9.3,9.2-14c1.8-2.8,3.7-5.5,5.5-8.2c0.4-0.6,0.9-0.8,1.6-0.9c1.9-0.1,3.2,0.3,4.4,2.1c3,4.8,6.3,9.5,9.4,14.3
			c2.4,3.6,4.8,7.2,7.2,10.9c0.2,0.2,0.3,0.5,0.5,1c-2.1,0-4,0-5.9,0c-0.3,0-0.6-0.4-0.7-0.6C61.6,101,58,95.4,54.5,89.8
			c-1-1.6-2-3.1-3.1-4.9c-1.2,1.8-2.2,3.5-3.3,5.1c-3.6,5.5-7.2,11-10.8,16.5c-0.2,0.3-0.5,0.6-0.8,0.7
			C34.6,107.3,32.8,107.3,30.6,107.3z"/>
		
			<linearGradient id="SVGID_00000119826132349390307880000004009725292356372658_" gradientUnits="userSpaceOnUse" x1="147.1121" y1="93.1787" x2="106.0828" y2="93.1787">
			<stop  offset="0" style="stop-color:#764F30"/>
			<stop  offset="0.4" style="stop-color:#E7D8B9"/>
			<stop  offset="0.6" style="stop-color:#E3D3B1"/>
			<stop  offset="0.6582" style="stop-color:#C4AE8D"/>
			<stop  offset="0.7231" style="stop-color:#A88C6B"/>
			<stop  offset="0.7895" style="stop-color:#927151"/>
			<stop  offset="0.857" style="stop-color:#825E3F"/>
			<stop  offset="0.9262" style="stop-color:#795334"/>
			<stop  offset="1" style="stop-color:#764F30"/>
		</linearGradient>
		<path style="fill:url(#SVGID_00000119826132349390307880000004009725292356372658_);" d="M147.1,107.3c-2.1,0-4,0-5.9,0
			c-0.3,0-0.6-0.4-0.8-0.7c-3.3-5.2-6.6-10.3-9.8-15.5c-1.3-2-2.5-4-3.9-6.1c-0.7,1.1-1.4,2.1-2,3.1c-4,6.2-8,12.4-12.1,18.6
			c-0.2,0.4-0.8,0.7-1.2,0.7c-1.7,0.1-3.4,0-5.2,0c0.1-0.4,0.2-0.6,0.3-0.8c4.5-6.8,9-13.5,13.5-20.3c1.4-2.1,2.8-4.2,4.2-6.4
			c0.4-0.5,0.8-0.7,1.4-0.8c2.3-0.3,3.6,0.6,4.8,2.6c5.4,8.4,11,16.7,16.5,25C146.9,106.8,147,106.9,147.1,107.3z"/>
		
			<linearGradient id="SVGID_00000121281172918622877430000006714959782631352704_" gradientUnits="userSpaceOnUse" x1="91.5523" y1="112.6586" x2="85.8133" y2="112.6586">
			<stop  offset="0" style="stop-color:#764F30"/>
			<stop  offset="0.4" style="stop-color:#E7D8B9"/>
			<stop  offset="0.6" style="stop-color:#E3D3B1"/>
			<stop  offset="0.6582" style="stop-color:#C4AE8D"/>
			<stop  offset="0.7231" style="stop-color:#A88C6B"/>
			<stop  offset="0.7895" style="stop-color:#927151"/>
			<stop  offset="0.857" style="stop-color:#825E3F"/>
			<stop  offset="0.9262" style="stop-color:#795334"/>
			<stop  offset="1" style="stop-color:#764F30"/>
		</linearGradient>
		<path style="fill:url(#SVGID_00000121281172918622877430000006714959782631352704_);" d="M85.8,112.6c0-1,0-2.1,0-3.1
			c0-0.7,0.2-1,1-1c1.4,0.1,2.8,0,4.2,0.1c0.2,0,0.5,0.5,0.6,0.7c0.2,1.3-0.3,2.4-1,3.5c-0.6,1-1.2,2.1-1.8,3.2
			c-0.4,0.7-2.1,1.1-2.6,0.7c-0.2-0.1-0.2-0.5-0.2-0.7C85.8,114.8,85.8,113.7,85.8,112.6C85.8,112.6,85.8,112.6,85.8,112.6z"/>
	</g>
	<g>
		
			<linearGradient id="SVGID_00000011733223813683105750000003664644408871053714_" gradientUnits="userSpaceOnUse" x1="188.3991" y1="40.125" x2="139.2519" y2="40.125">
			<stop  offset="0" style="stop-color:#764F30"/>
			<stop  offset="0.4" style="stop-color:#E7D8B9"/>
			<stop  offset="0.6" style="stop-color:#E3D3B1"/>
			<stop  offset="0.6582" style="stop-color:#C4AE8D"/>
			<stop  offset="0.7231" style="stop-color:#A88C6B"/>
			<stop  offset="0.7895" style="stop-color:#927151"/>
			<stop  offset="0.857" style="stop-color:#825E3F"/>
			<stop  offset="0.9262" style="stop-color:#795334"/>
			<stop  offset="1" style="stop-color:#764F30"/>
		</linearGradient>
		<path style="fill:url(#SVGID_00000011733223813683105750000003664644408871053714_);" d="M188.4,40.2
			c0.1,13.2-10.6,24.3-24.1,24.5c-13.9,0.3-24.6-10.8-25-23.8c-0.4-14.1,10.9-25.2,24.2-25.4C177.5,15.4,188.5,26.7,188.4,40.2z
			 M163.8,63.5c12.4,0.1,23.5-10.1,23.5-23.5c0-12.7-10.3-23.4-23.4-23.3c-12.7,0-23,10-23.4,22.6C140,52.6,150.6,63.4,163.8,63.5z"
			/>
		
			<linearGradient id="SVGID_00000016766969439977558370000000092357623813165184_" gradientUnits="userSpaceOnUse" x1="137.4468" y1="39.9325" x2="126.0293" y2="39.9325">
			<stop  offset="0" style="stop-color:#764F30"/>
			<stop  offset="0.4" style="stop-color:#E7D8B9"/>
			<stop  offset="0.6" style="stop-color:#E3D3B1"/>
			<stop  offset="0.6582" style="stop-color:#C4AE8D"/>
			<stop  offset="0.7231" style="stop-color:#A88C6B"/>
			<stop  offset="0.7895" style="stop-color:#927151"/>
			<stop  offset="0.857" style="stop-color:#825E3F"/>
			<stop  offset="0.9262" style="stop-color:#795334"/>
			<stop  offset="1" style="stop-color:#764F30"/>
		</linearGradient>
		<path style="fill:url(#SVGID_00000016766969439977558370000000092357623813165184_);" d="M137.2,50.5c-3.9-3.4-7.6-6.8-11.2-10.5
			c3.6-3.7,7.4-7.2,11.3-10.6c0,0,0.1,0.1,0.1,0.1c-0.6,0.7-1.2,1.4-1.8,2.1c-0.6,0.7-1.3,1.4-1.9,2.1c-0.6,0.7-1.3,1.4-1.9,2.1
			c-0.7,0.7-1.3,1.4-2,2.1c-0.7,0.7-1.4,1.3-2.1,1.9c3.3,3.6,6.5,7,9.7,10.5C137.4,50.4,137.3,50.4,137.2,50.5z"/>
		
			<linearGradient id="SVGID_00000167359944993498183830000002780280194163344785_" gradientUnits="userSpaceOnUse" x1="201.8707" y1="40.0262" x2="190.5122" y2="40.0262">
			<stop  offset="0" style="stop-color:#764F30"/>
			<stop  offset="0.4" style="stop-color:#E7D8B9"/>
			<stop  offset="0.6" style="stop-color:#E3D3B1"/>
			<stop  offset="0.6582" style="stop-color:#C4AE8D"/>
			<stop  offset="0.7231" style="stop-color:#A88C6B"/>
			<stop  offset="0.7895" style="stop-color:#927151"/>
			<stop  offset="0.857" style="stop-color:#825E3F"/>
			<stop  offset="0.9262" style="stop-color:#795334"/>
			<stop  offset="1" style="stop-color:#764F30"/>
		</linearGradient>
		<path style="fill:url(#SVGID_00000167359944993498183830000002780280194163344785_);" d="M190.5,50.5c3.1-3.7,6.4-7.1,9.7-10.5
			c-3.2-3.4-6.6-6.7-9.6-10.4c0.9,0.3,10.4,9.2,11.3,10.4C201.1,41.1,191.4,50.1,190.5,50.5z"/>
		
			<linearGradient id="SVGID_00000064330605884194914010000004420430918366088104_" gradientUnits="userSpaceOnUse" x1="174.5068" y1="7.774" x2="153.4584" y2="7.774">
			<stop  offset="0" style="stop-color:#764F30"/>
			<stop  offset="0.4" style="stop-color:#E7D8B9"/>
			<stop  offset="0.6" style="stop-color:#E3D3B1"/>
			<stop  offset="0.6582" style="stop-color:#C4AE8D"/>
			<stop  offset="0.7231" style="stop-color:#A88C6B"/>
			<stop  offset="0.7895" style="stop-color:#927151"/>
			<stop  offset="0.857" style="stop-color:#825E3F"/>
			<stop  offset="0.9262" style="stop-color:#795334"/>
			<stop  offset="1" style="stop-color:#764F30"/>
		</linearGradient>
		<path style="fill:url(#SVGID_00000064330605884194914010000004420430918366088104_);" d="M174.4,13.4c-3.7-3-7-6.3-10.4-9.7
			c-3.4,3.4-6.8,6.7-10.5,9.6c0.1-0.1,0.2-0.2,0.2-0.3c2.9-3.5,6-6.8,9.3-10c0.2-0.2,0.5-0.5,0.7-0.7c0.3-0.3,0.5-0.2,0.7,0
			c1.3,1.3,2.6,2.6,3.8,3.9c1.9,2,3.8,4.1,5.7,6.2C174.1,12.8,174.3,13.1,174.4,13.4C174.5,13.3,174.4,13.4,174.4,13.4z"/>
		
			<linearGradient id="SVGID_00000044177586130930829500000005832475148439775366_" gradientUnits="userSpaceOnUse" x1="174.5464" y1="72.1403" x2="153.6146" y2="72.1403">
			<stop  offset="0" style="stop-color:#764F30"/>
			<stop  offset="0.4" style="stop-color:#E7D8B9"/>
			<stop  offset="0.6" style="stop-color:#E3D3B1"/>
			<stop  offset="0.6582" style="stop-color:#C4AE8D"/>
			<stop  offset="0.7231" style="stop-color:#A88C6B"/>
			<stop  offset="0.7895" style="stop-color:#927151"/>
			<stop  offset="0.857" style="stop-color:#825E3F"/>
			<stop  offset="0.9262" style="stop-color:#795334"/>
			<stop  offset="1" style="stop-color:#764F30"/>
		</linearGradient>
		<path style="fill:url(#SVGID_00000044177586130930829500000005832475148439775366_);" d="M153.7,66.7c3.6,3,6.9,6.2,10.3,9.5
			c3.4-3.3,6.8-6.7,10.5-9.7c0,0,0.1,0.1,0.1,0.1c-0.5,0.6-0.9,1.1-1.4,1.7c-1.2,1.4-2.5,2.8-3.8,4.1c-1.5,1.6-3,3.1-4.5,4.6
			c0,0-0.1,0.1-0.1,0.1c-0.8,0.8-0.8,0.8-1.6,0c-2.7-2.9-5.4-5.7-8.1-8.6C154.5,68,154.1,67.4,153.7,66.7
			C153.6,66.8,153.7,66.8,153.7,66.7z"/>
		
			<linearGradient id="SVGID_00000111898921912040385710000017726708506566032807_" gradientUnits="userSpaceOnUse" x1="155.4448" y1="56.8003" x2="138.9777" y2="56.8003">
			<stop  offset="0" style="stop-color:#764F30"/>
			<stop  offset="0.4" style="stop-color:#E7D8B9"/>
			<stop  offset="0.6" style="stop-color:#E3D3B1"/>
			<stop  offset="0.6582" style="stop-color:#C4AE8D"/>
			<stop  offset="0.7231" style="stop-color:#A88C6B"/>
			<stop  offset="0.7895" style="stop-color:#927151"/>
			<stop  offset="0.857" style="stop-color:#825E3F"/>
			<stop  offset="0.9262" style="stop-color:#795334"/>
			<stop  offset="1" style="stop-color:#764F30"/>
		</linearGradient>
		<path style="fill:url(#SVGID_00000111898921912040385710000017726708506566032807_);" d="M139.9,64.1c5.2,0.1,10.4,0.2,15.6,0.3
			c0,0.1,0,0.1,0,0.2c-0.4,0-0.9,0.1-1.3,0.1c-3.9,0.1-7.9,0.2-11.8,0.2c-1,0-1.9,0-2.9,0.1c-0.4,0-0.5-0.1-0.5-0.5
			c0-3.1,0.1-6.1,0.1-9.2c0-2.2,0.1-4.3,0.2-6.5c0-0.1,0-0.1,0.1-0.2C139.8,53.8,139.8,58.9,139.9,64.1z"/>
		
			<linearGradient id="SVGID_00000037676089065167521790000004996271594093977003_" gradientUnits="userSpaceOnUse" x1="155.2438" y1="23.3381" x2="138.9699" y2="23.3381">
			<stop  offset="0" style="stop-color:#764F30"/>
			<stop  offset="0.4" style="stop-color:#E7D8B9"/>
			<stop  offset="0.6" style="stop-color:#E3D3B1"/>
			<stop  offset="0.6582" style="stop-color:#C4AE8D"/>
			<stop  offset="0.7231" style="stop-color:#A88C6B"/>
			<stop  offset="0.7895" style="stop-color:#927151"/>
			<stop  offset="0.857" style="stop-color:#825E3F"/>
			<stop  offset="0.9262" style="stop-color:#795334"/>
			<stop  offset="1" style="stop-color:#764F30"/>
		</linearGradient>
		<path style="fill:url(#SVGID_00000037676089065167521790000004996271594093977003_);" d="M139.3,31.3c0-0.4,0-0.8,0-1.2
			c-0.1-3.8-0.2-7.7-0.3-11.5c0-0.9,0-1.8-0.1-2.7c0-0.4,0.1-0.6,0.5-0.6c4.4,0.1,8.8,0.1,13.2,0.2c0.7,0,1.4,0.1,2,0.1
			c0.2,0,0.3,0.1,0.5,0.1c0,0.1,0,0.1,0,0.2c-5.1,0.1-10.2,0.2-15.4,0.4c0,5-0.1,10-0.4,15C139.4,31.3,139.4,31.3,139.3,31.3z"/>
		
			<linearGradient id="SVGID_00000139282826951738689350000004543567668888504758_" gradientUnits="userSpaceOnUse" x1="188.5981" y1="56.785" x2="172.6087" y2="56.785">
			<stop  offset="0" style="stop-color:#764F30"/>
			<stop  offset="0.4" style="stop-color:#E7D8B9"/>
			<stop  offset="0.6" style="stop-color:#E3D3B1"/>
			<stop  offset="0.6582" style="stop-color:#C4AE8D"/>
			<stop  offset="0.7231" style="stop-color:#A88C6B"/>
			<stop  offset="0.7895" style="stop-color:#927151"/>
			<stop  offset="0.857" style="stop-color:#825E3F"/>
			<stop  offset="0.9262" style="stop-color:#795334"/>
			<stop  offset="1" style="stop-color:#764F30"/>
		</linearGradient>
		<path style="fill:url(#SVGID_00000139282826951738689350000004543567668888504758_);" d="M188.2,48.6c0,0.2,0.1,0.4,0.1,0.6
			c0.1,5.1,0.2,10.2,0.3,15.2c0,0.4-0.1,0.6-0.6,0.6c-4.7-0.1-9.4-0.2-14.1-0.3c-0.4,0-0.9-0.1-1.3-0.2c0.1,0,0.2-0.1,0.3-0.1
			c3.4-0.1,6.8-0.2,10.2-0.2c1.4,0,2.7-0.1,4.1-0.1c0.4,0,0.5-0.2,0.5-0.5c0-2.5,0-4.9,0.1-7.4c0.1-2.5,0.2-4.9,0.3-7.4
			C188.1,48.7,188.1,48.7,188.2,48.6C188.1,48.6,188.2,48.6,188.2,48.6z"/>
		
			<linearGradient id="SVGID_00000161608866611274868510000005996050901309097913_" gradientUnits="userSpaceOnUse" x1="188.5936" y1="23.3654" x2="172.6222" y2="23.3654">
			<stop  offset="0" style="stop-color:#764F30"/>
			<stop  offset="0.4" style="stop-color:#E7D8B9"/>
			<stop  offset="0.6" style="stop-color:#E3D3B1"/>
			<stop  offset="0.6582" style="stop-color:#C4AE8D"/>
			<stop  offset="0.7231" style="stop-color:#A88C6B"/>
			<stop  offset="0.7895" style="stop-color:#927151"/>
			<stop  offset="0.857" style="stop-color:#825E3F"/>
			<stop  offset="0.9262" style="stop-color:#795334"/>
			<stop  offset="1" style="stop-color:#764F30"/>
		</linearGradient>
		<path style="fill:url(#SVGID_00000161608866611274868510000005996050901309097913_);" d="M172.6,15.8c0.1,0,0.3-0.1,0.4-0.1
			c2.6-0.1,5.2-0.2,7.8-0.2c2.4-0.1,4.8-0.1,7.1-0.1c0.7,0,0.7,0,0.7,0.6c0,3.3-0.1,6.7-0.1,10c0,1.6-0.1,3.3-0.2,4.9
			c0,0.1,0,0.3-0.2,0.4c0-0.8-0.1-1.7-0.1-2.5c-0.1-4-0.2-8.1-0.2-12.1c0-0.5-0.2-0.5-0.6-0.5c-2.4,0-4.7,0-7.1-0.1
			c-2.5-0.1-5-0.2-7.5-0.2C172.6,15.9,172.6,15.8,172.6,15.8z"/>
		
			<linearGradient id="SVGID_00000093868734256825838210000014266398530056388486_" gradientUnits="userSpaceOnUse" x1="162.4727" y1="40.0362" x2="149.0309" y2="40.0362">
			<stop  offset="0" style="stop-color:#764F30"/>
			<stop  offset="0.4" style="stop-color:#E7D8B9"/>
			<stop  offset="0.6" style="stop-color:#E3D3B1"/>
			<stop  offset="0.6582" style="stop-color:#C4AE8D"/>
			<stop  offset="0.7231" style="stop-color:#A88C6B"/>
			<stop  offset="0.7895" style="stop-color:#927151"/>
			<stop  offset="0.857" style="stop-color:#825E3F"/>
			<stop  offset="0.9262" style="stop-color:#795334"/>
			<stop  offset="1" style="stop-color:#764F30"/>
		</linearGradient>
		<path style="fill:url(#SVGID_00000093868734256825838210000014266398530056388486_);" d="M150.2,23.8c0,0.4,0,0.6,0,0.9
			c0,4,0,8,0,12.1c0,0.4,0.1,0.6,0.5,0.6c2,0.1,4.1,0.2,6.1,0.4c0,0.1,0,0.1,0,0.2c-2.6,0.2-5.1,0.3-7.8,0.5c0-5.3,0-10.5,0-15.8
			c0.1,0,0.3,0,0.5,0c4.1,0,8.3,0,12.4,0c0.4,0,0.6,0.1,0.6,0.6c0,8.6,0,17.2,0,25.8c0,2.7-0.3,5.4-0.5,8.1c0,0.2,0,0.4-0.1,0.6
			c0-0.3-0.1-0.5-0.1-0.8c-0.6-6.7-0.4-13.4-0.4-20.1c0-4.1,0-8.3,0-12.4c0-0.4-0.1-0.5-0.5-0.5c-2.4,0-4.8,0-7.1,0
			C152.5,23.8,151.4,23.8,150.2,23.8z"/>
		
			<linearGradient id="SVGID_00000111150617446518890730000002663990565415003017_" gradientUnits="userSpaceOnUse" x1="178.3804" y1="40.0653" x2="164.8678" y2="40.0653">
			<stop  offset="0" style="stop-color:#764F30"/>
			<stop  offset="0.4" style="stop-color:#E7D8B9"/>
			<stop  offset="0.6" style="stop-color:#E3D3B1"/>
			<stop  offset="0.6582" style="stop-color:#C4AE8D"/>
			<stop  offset="0.7231" style="stop-color:#A88C6B"/>
			<stop  offset="0.7895" style="stop-color:#927151"/>
			<stop  offset="0.857" style="stop-color:#825E3F"/>
			<stop  offset="0.9262" style="stop-color:#795334"/>
			<stop  offset="1" style="stop-color:#764F30"/>
		</linearGradient>
		<path style="fill:url(#SVGID_00000111150617446518890730000002663990565415003017_);" d="M170.4,37.7c1-0.1,2.1-0.1,3.1-0.2
			c1.1-0.1,2.1-0.1,3.2-0.2c0.3,0,0.5-0.2,0.5-0.5c0-4.2,0-8.4,0-12.5c0-0.4-0.1-0.5-0.5-0.5c-3.4,0-6.7,0-10.1,0
			c-0.4,0-0.5,0.1-0.5,0.5c0,4.7,0,9.4,0,14.1c0,3.9,0,7.7,0,11.6c0,2.4-0.3,4.9-0.4,7.3c0,0.1-0.1,0.3-0.2,0.4
			c0-0.6-0.1-1.3-0.1-1.9c-0.1-2.1-0.3-4.2-0.4-6.4c0-0.6,0-1.1,0-1.7c0-8.1,0-16.3,0-24.4c0-0.7,0-0.7,0.7-0.7c4.1,0,8.2,0,12.3,0
			c0.4,0,0.5,0.1,0.5,0.5c0,4.6,0,9.3,0,13.9c0,1.5,0,1.5-1.5,1.4c-1.9-0.1-3.7-0.2-5.6-0.3C171,37.9,170.7,37.8,170.4,37.7
			C170.4,37.8,170.4,37.7,170.4,37.7z"/>
		
			<linearGradient id="SVGID_00000146467782922440878650000012437249223327057805_" gradientUnits="userSpaceOnUse" x1="159.6387" y1="42.4098" x2="148.9694" y2="42.4098">
			<stop  offset="0" style="stop-color:#764F30"/>
			<stop  offset="0.4" style="stop-color:#E7D8B9"/>
			<stop  offset="0.6" style="stop-color:#E3D3B1"/>
			<stop  offset="0.6582" style="stop-color:#C4AE8D"/>
			<stop  offset="0.7231" style="stop-color:#A88C6B"/>
			<stop  offset="0.7895" style="stop-color:#927151"/>
			<stop  offset="0.857" style="stop-color:#825E3F"/>
			<stop  offset="0.9262" style="stop-color:#795334"/>
			<stop  offset="1" style="stop-color:#764F30"/>
		</linearGradient>
		<path style="fill:url(#SVGID_00000146467782922440878650000012437249223327057805_);" d="M158.9,57.6c-0.1-0.7-0.2-1.4-0.3-2.1
			c-0.4-2.6-0.1-5.3-0.2-7.9c0-1.6,0-3.2,0-4.9c-0.5,0.1-1,0.2-1.5,0.2c-1.6,0.1-3.2,0.1-4.7,0.2c-0.5,0-1,0-1.5,0
			c-0.4,0-0.5,0.1-0.5,0.5c0,0.7,0,1.5,0,2.2c0,2.8,0,5.6,0,8.3c0,1.2-0.3,2.3-0.5,3.5c-0.1,0-0.1,0-0.2,0c-0.1-0.3-0.2-0.7-0.2-1
			c-0.1-0.4-0.2-0.7-0.2-1.1c-0.1-0.9-0.1-1.7-0.1-2.6c0-3.5,0-7.1,0-10.6c0-0.4,0.1-0.6,0.6-0.6c2.2,0,4.5,0,6.7,0.1
			c0.7,0,1.4,0.2,2.1,0.3c0-0.2,0.1-0.3,0.1-0.4c0-3.5,0-7,0-10.6c0-1.2,0.3-2.4,0.4-3.6c0-0.1,0.1-0.2,0.2-0.4
			c0.1,0.9,0.3,1.6,0.4,2.3c0.1,1.4,0.2,2.9,0.2,4.3c0,6.4,0,12.8,0,19.2c0,1.2-0.3,2.5-0.4,3.7c0,0.3-0.1,0.6-0.1,0.9
			C159,57.6,159,57.6,158.9,57.6z"/>
		
			<linearGradient id="SVGID_00000119076605820306869290000008843922835912925070_" gradientUnits="userSpaceOnUse" x1="178.3835" y1="42.4363" x2="167.7152" y2="42.4363">
			<stop  offset="0" style="stop-color:#764F30"/>
			<stop  offset="0.4" style="stop-color:#E7D8B9"/>
			<stop  offset="0.6" style="stop-color:#E3D3B1"/>
			<stop  offset="0.6582" style="stop-color:#C4AE8D"/>
			<stop  offset="0.7231" style="stop-color:#A88C6B"/>
			<stop  offset="0.7895" style="stop-color:#927151"/>
			<stop  offset="0.857" style="stop-color:#825E3F"/>
			<stop  offset="0.9262" style="stop-color:#795334"/>
			<stop  offset="1" style="stop-color:#764F30"/>
		</linearGradient>
		<path style="fill:url(#SVGID_00000119076605820306869290000008843922835912925070_);" d="M169,42.2c0.8-0.1,1.6-0.3,2.4-0.4
			c0.2,0,0.3,0,0.5,0c2,0,4,0,6,0c0.4,0,0.6,0.1,0.6,0.6c0,4,0,8.1,0,12.1c0,1.1-0.3,2.1-0.5,3.2c0,0-0.1,0-0.1,0
			c0-0.1-0.1-0.2-0.1-0.3c-0.2-1.3-0.4-2.6-0.5-3.9c-0.1-3.2,0-6.5,0-9.7c0-0.7,0-0.7-0.7-0.7c-1.5,0-2.9,0.1-4.4,0
			c-0.9,0-1.8-0.2-2.6-0.3c-0.1,0-0.3,0-0.5-0.1c0,0.2,0,0.3,0,0.5c0,3.5,0,7,0,10.5c0,1.3-0.3,2.6-0.5,4c-0.1,0-0.1,0-0.2,0
			c-0.1-0.4-0.2-0.9-0.2-1.3c-0.1-0.4-0.1-0.9-0.2-1.3c-0.1-0.9-0.1-1.7-0.1-2.6c0-6.9,0-13.8,0-20.6c0-1.5,0.3-3,0.4-4.5
			c0.1,0,0.1,0,0.2,0c0.1,0.4,0.2,0.9,0.3,1.3c0.1,1.3,0.3,2.6,0.3,3.9c0,3,0,6,0,9C168.9,41.7,169,41.9,169,42.2z"/>
	</g>
</g>
</svg>
